Whatever Works *2009* [BluRay] [720p] [ENG, POL, sub. ENG]


General information:
Country: USA, France 
Release: 22 April 2009 (Tribeca Film Festival)
Genre: Comedy, Romance 
Director: Woody Allen
Screenplay: Woody Allen
Original Music: Roy B. Yokelson 
Cinematography by: Harris Savides
Duration: 1h 31mn
Language: English, Polish
Subtitles: English
Rating: 7.4/10 - 13717 votes 

Cast:
Larry David  ...  Boris  
Adam Brooks  ...  Boris' Friend  
Lyle Kanouse  ...  Boris' Friend  
Michael McKean  ...  Boris' Friend  
Clifford Lee Dickson  ...  Boy on Street  
Yolonda Ross  ...  Boy's Mother  
Carolyn McCormick  ...  Jessica  
Samantha Bee  ...  Chess Mother  
Conleth Hill  ...  Brockman  
Marcia DeBonis  ...  Lady at Chinese Restaurant  
Evan Rachel Wood  ...  Melody  
John Gallagher Jr.  ...  Perry  
Willa Cuthrell-Tuttleman  ...  Chess Girl (as Willa Cuthrell Tuttleman)  
Nicole Patrick  ...  Perry's Friend  
Patricia Clarkson  ...  Marietta  

Plot:
Attempting to impress his ideologies on religion, relationships, and the randomness (and worthlessness) of existence, lifelong New York resident Boris Yellnikoff rants to anyone who will listen, including the audience. But when he begrudgingly allows naive Mississippi runaway Melodie St. Ann Celestine to live in his apartment...

Specifications:
General
Format                           : Matroska
Overall bit rate                 : 7 145 Kbps

Video
Format                           : AVC
Format/Info                      : Advanced Video Codec
Format profile                   : High@L4.1
Format settings, CABAC           : Yes
Format settings, ReFrames        : 5 frames
Muxing mode                      : Container profile=Unknown@4.1
Codec ID                         : V_MPEG4/ISO/AVC
Bit rate                         : 5 319 Kbps
Width                            : 1 280 pixels
Height                           : 720 pixels
Display aspect ratio             : 16:9

Audio 1
Format                           : DTS
Format/Info                      : Digital Theater Systems
Codec ID                         : A_DTS
Bit rate mode                    : Constant
Bit rate                         : 1 510 Kbps
Channel(s)                       : 6 channels
Channel positions                : Front: L C R, Side: L R, LFE
Sampling rate                    : 48.0 KHz
Bit depth                        : 24 bits
Stream size                      : 990 MiB (21%)
Title                            : English

Audio 2
Format                           : AC-3
Format/Info                      : Audio Coding 3
Mode extension                   : CM (complete main)
Codec ID                         : A_AC3
Bit rate mode                    : Constant
Bit rate                         : 320 Kbps
Channel(s)                       : 6 channels
Channel positions                : Front: L C R, Side: L R, LFE
Sampling rate                    : 48.0 KHz
Stream size                      : 210 MiB (4%)
Title                            : Polish
Language                         : Polish

Text
Format                           : UTF-8
Codec ID                         : S_TEXT/UTF8
Codec ID/Info                    : UTF-8 Plain Text
Title                            : English
